<svg preserveAspectRatio="none" overflow="visible" style="display: block;" width="16" height="16" viewBox="0 0 16 16" fill="none" xmlns="http://www.w3.org/2000/svg">
<g id="Icon">
<path id="Icon (Stroke)" d="M13.3333 5.19987C13.3333 4.62894 13.3331 4.24078 13.3086 3.94076C13.2847 3.64848 13.2413 3.4988 13.1882 3.39453C13.0603 3.1437 12.8563 2.93967 12.6055 2.81185C12.5012 2.75872 12.3515 2.71529 12.0592 2.69141C11.7592 2.6669 11.3711 2.66667 10.8001 2.66667H5.19987C4.62894 2.66667 4.24078 2.6669 3.94076 2.69141C3.64848 2.71529 3.4988 2.75872 3.39453 2.81185C3.1437 2.93967 2.93967 3.1437 2.81185 3.39453C2.75872 3.4988 2.71529 3.64848 2.69141 3.94076C2.6669 4.24078 2.66667 4.62894 2.66667 5.19987V10.8001C2.66667 11.3711 2.6669 11.7592 2.69141 12.0592C2.71529 12.3515 2.75872 12.5012 2.81185 12.6055C2.93967 12.8563 3.1437 13.0603 3.39453 13.1882C3.4988 13.2413 3.64848 13.2847 3.94076 13.3086C4.24078 13.3331 4.62894 13.3333 5.19987 13.3333H10.8001C11.3711 13.3333 11.7592 13.3331 12.0592 13.3086C12.3515 13.2847 12.5012 13.2413 12.6055 13.1882C12.8563 13.0603 13.0603 12.8563 13.1882 12.6055C13.2413 12.5012 13.2847 12.3515 13.3086 12.0592C13.3331 11.7592 13.3333 11.3711 13.3333 10.8001V5.19987ZM7.33333 10.6667V8C7.33333 7.63181 7.63181 7.33333 8 7.33333C8.36819 7.33333 8.66667 7.63181 8.66667 8V10.6667C8.66667 11.0349 8.36819 11.3333 8 11.3333C7.63181 11.3333 7.33333 11.0349 7.33333 10.6667ZM8.00651 4.66667C8.3747 4.66667 8.67318 4.96514 8.67318 5.33333C8.67318 5.70152 8.3747 6 8.00651 6H8C7.63181 6 7.33333 5.70152 7.33333 5.33333C7.33333 4.96514 7.63181 4.66667 8 4.66667H8.00651ZM14.6667 10.8001C14.6667 11.3491 14.6673 11.801 14.6374 12.168C14.6068 12.5427 14.5412 12.8874 14.3763 13.2109C14.1207 13.7126 13.7126 14.1207 13.2109 14.3763C12.8874 14.5412 12.5427 14.6068 12.168 14.6374C11.801 14.6673 11.3491 14.6667 10.8001 14.6667H5.19987C4.65088 14.6667 4.19895 14.6673 3.83203 14.6374C3.45733 14.6068 3.1126 14.5412 2.78906 14.3763C2.28739 14.1207 1.87934 13.7126 1.6237 13.2109C1.45885 12.8874 1.39325 12.5427 1.36263 12.168C1.33265 11.801 1.33333 11.3491 1.33333 10.8001V5.19987C1.33333 4.65088 1.33265 4.19895 1.36263 3.83203C1.39325 3.45733 1.45885 3.1126 1.6237 2.78906C1.87934 2.28739 2.28739 1.87934 2.78906 1.6237C3.1126 1.45885 3.45733 1.39325 3.83203 1.36263C4.19895 1.33265 4.65088 1.33333 5.19987 1.33333H10.8001C11.3491 1.33333 11.801 1.33265 12.168 1.36263C12.5427 1.39325 12.8874 1.45885 13.2109 1.6237C13.7126 1.87934 14.1207 2.28739 14.3763 2.78906C14.5412 3.1126 14.6068 3.45733 14.6374 3.83203C14.6673 4.19895 14.6667 4.65088 14.6667 5.19987V10.8001Z" fill="#6E7283"/>
</g>
</svg>
