<svg preserveAspectRatio="none" overflow="visible" style="display: block;" width="20" height="20" viewBox="0 0 20 20" fill="none" xmlns="http://www.w3.org/2000/svg">
<g id="Icon">
<path id="Shape" fill-rule="evenodd" clip-rule="evenodd" d="M10 3.33333C6.3181 3.33333 3.33333 6.3181 3.33333 10C3.33333 13.6819 6.3181 16.6667 10 16.6667C13.6819 16.6667 16.6667 13.6819 16.6667 10C16.6667 6.3181 13.6819 3.33333 10 3.33333ZM1.66667 10C1.66667 5.39763 5.39763 1.66667 10 1.66667C14.6024 1.66667 18.3333 5.39763 18.3333 10C18.3333 14.6024 14.6024 18.3333 10 18.3333C5.39763 18.3333 1.66667 14.6024 1.66667 10Z" fill="white"/>
<path id="Shape_2" fill-rule="evenodd" clip-rule="evenodd" d="M13.0893 7.74408C13.4147 8.06951 13.4147 8.59715 13.0893 8.92259L9.75592 12.2559C9.43049 12.5814 8.90285 12.5814 8.57741 12.2559L6.91074 10.5893C6.58531 10.2638 6.58531 9.73618 6.91074 9.41074C7.23618 9.08531 7.76382 9.08531 8.08926 9.41074L9.16667 10.4882L11.9107 7.74408C12.2362 7.41864 12.7638 7.41864 13.0893 7.74408Z" fill="white"/>
</g>
</svg>
