<svg preserveAspectRatio="none" overflow="visible" style="display: block;" width="24" height="24" viewBox="0 0 24 24" fill="none" xmlns="http://www.w3.org/2000/svg">
<g id="Interface / Shopping_Cart_02-active">
<path id="Union" d="M8 18C9.10457 18 10 18.8954 10 20C10 21.1046 9.10457 22 8 22C6.89543 22 6 21.1046 6 20C6 18.8954 6.89543 18 8 18ZM18 18C19.1046 18 20 18.8954 20 20C20 21.1046 19.1046 22 18 22C16.8954 22 16 21.1046 16 20C16 18.8954 16.8954 18 18 18ZM3.26855 2C3.49051 2 3.71183 1.99955 3.90039 2.01367C4.10148 2.02874 4.33521 2.06388 4.57715 2.1709C4.87526 2.30279 5.13577 2.50528 5.33691 2.75977L5.41992 2.87207L5.51855 3.03613C5.60562 3.20018 5.65879 3.36261 5.69727 3.50879C5.74529 3.69133 5.78504 3.90845 5.8252 4.12598V4.12793L5.98633 5H18.9883C19.3136 5 19.6234 4.99897 19.8789 5.02148C20.1424 5.04471 20.4622 5.10027 20.7695 5.28418C21.1842 5.53236 21.4971 5.92271 21.6465 6.38477C21.7565 6.72546 21.7378 7.04981 21.7012 7.31152C21.6657 7.56529 21.5955 7.8663 21.5225 8.18262V8.18457L19.9531 14.9844L19.9521 14.9893C19.9047 15.195 19.8574 15.4016 19.8037 15.5752C19.7463 15.761 19.6628 15.9729 19.5127 16.1787C19.3006 16.4695 19.0135 16.6983 18.6816 16.8398C18.447 16.9399 18.2217 16.9731 18.0273 16.9873C17.8454 17.0006 17.6326 17 17.4199 17H7C6.51776 17 6.10417 16.6559 6.0166 16.1816L3.8584 4.49121V4.48926C3.81281 4.24233 3.78728 4.11097 3.7627 4.01758C3.76187 4.01445 3.76054 4.01162 3.75977 4.00879C3.75696 4.00856 3.75405 4.00804 3.75098 4.00781C3.65431 4.00057 3.52017 4 3.26855 4H3C2.44772 4 2 3.55228 2 3C2 2.44772 2.44772 2 3 2H3.26855Z" fill="#096BCD"/>
</g>
</svg>
